<svg width="24" height="25" viewBox="0 0 24 25" fill="none" xmlns="http://www.w3.org/2000/svg">
<g id="Bold/Moon">
<path id="Moon" d="M21.53 16.8487C21.37 16.5787 20.92 16.1587 19.8 16.3587C19.18 16.4687 18.55 16.5187 17.92 16.4887C15.59 16.3887 13.48 15.3187 12.01 13.6687C10.71 12.2187 9.90995 10.3287 9.89995 8.2887C9.89995 7.1487 10.12 6.0487 10.57 5.0087C11.01 3.9987 10.7 3.4687 10.48 3.2487C10.25 3.0187 9.70995 2.6987 8.64995 3.1387C4.55995 4.8587 2.02995 8.9587 2.32995 13.3487C2.62995 17.4787 5.52995 21.0087 9.36995 22.3387C10.29 22.6587 11.26 22.8487 12.26 22.8887C12.42 22.8987 12.58 22.9087 12.74 22.9087C16.09 22.9087 19.23 21.3287 21.21 18.6387C21.88 17.7087 21.7 17.1187 21.53 16.8487Z" fill="white"/>
</g>
</svg>
