<svg width="24" height="25" viewBox="0 0 24 25" fill="none" xmlns="http://www.w3.org/2000/svg">
<g id="Outline/Search">
<g id="Search">
<path d="M11.5 22.6687C5.85 22.6687 1.25 18.0687 1.25 12.4187C1.25 6.7687 5.85 2.1687 11.5 2.1687C17.15 2.1687 21.75 6.7687 21.75 12.4187C21.75 18.0687 17.15 22.6687 11.5 22.6687ZM11.5 3.6687C6.67 3.6687 2.75 7.5987 2.75 12.4187C2.75 17.2387 6.67 21.1687 11.5 21.1687C16.33 21.1687 20.25 17.2387 20.25 12.4187C20.25 7.5987 16.33 3.6687 11.5 3.6687Z" fill="#7E848E"/>
<path d="M22 23.6687C21.81 23.6687 21.62 23.5987 21.47 23.4487L19.47 21.4487C19.18 21.1587 19.18 20.6787 19.47 20.3887C19.76 20.0987 20.24 20.0987 20.53 20.3887L22.53 22.3887C22.82 22.6787 22.82 23.1587 22.53 23.4487C22.38 23.5987 22.19 23.6687 22 23.6687Z" fill="#7E848E"/>
</g>
</g>
</svg>
