<svg width="24" height="25" viewBox="0 0 24 25" fill="none" xmlns="http://www.w3.org/2000/svg">
<g id="Outline/Sun">
<g id="Sun">
<path d="M12 20.1687C8 20.1687 4.75 16.9187 4.75 12.9187C4.75 8.9187 8 5.6687 12 5.6687C16 5.6687 19.25 8.9187 19.25 12.9187C19.25 16.9187 16 20.1687 12 20.1687ZM12 7.1687C8.83 7.1687 6.25 9.7487 6.25 12.9187C6.25 16.0887 8.83 18.6687 12 18.6687C15.17 18.6687 17.75 16.0887 17.75 12.9187C17.75 9.7487 15.17 7.1687 12 7.1687Z" fill="#7E848E"/>
<path d="M12 23.8787C11.45 23.8787 11 23.4687 11 22.9187V22.8387C11 22.2887 11.45 21.8387 12 21.8387C12.55 21.8387 13 22.2887 13 22.8387C13 23.3887 12.55 23.8787 12 23.8787ZM19.14 21.0587C18.88 21.0587 18.63 20.9587 18.43 20.7687L18.3 20.6387C17.91 20.2487 17.91 19.6187 18.3 19.2287C18.69 18.8387 19.32 18.8387 19.71 19.2287L19.84 19.3587C20.23 19.7487 20.23 20.3787 19.84 20.7687C19.65 20.9587 19.4 21.0587 19.14 21.0587ZM4.86 21.0587C4.6 21.0587 4.35 20.9587 4.15 20.7687C3.76 20.3787 3.76 19.7487 4.15 19.3587L4.28 19.2287C4.67 18.8387 5.3 18.8387 5.69 19.2287C6.08 19.6187 6.08 20.2487 5.69 20.6387L5.56 20.7687C5.37 20.9587 5.11 21.0587 4.86 21.0587ZM22 13.9187H21.92C21.37 13.9187 20.92 13.4687 20.92 12.9187C20.92 12.3687 21.37 11.9187 21.92 11.9187C22.47 11.9187 22.96 12.3687 22.96 12.9187C22.96 13.4687 22.55 13.9187 22 13.9187ZM2.08 13.9187H2C1.45 13.9187 1 13.4687 1 12.9187C1 12.3687 1.45 11.9187 2 11.9187C2.55 11.9187 3.04 12.3687 3.04 12.9187C3.04 13.4687 2.63 13.9187 2.08 13.9187ZM19.01 6.9087C18.75 6.9087 18.5 6.8087 18.3 6.6187C17.91 6.2287 17.91 5.5987 18.3 5.2087L18.43 5.0787C18.82 4.6887 19.45 4.6887 19.84 5.0787C20.23 5.4687 20.23 6.0987 19.84 6.4887L19.71 6.6187C19.52 6.8087 19.27 6.9087 19.01 6.9087ZM4.99 6.9087C4.73 6.9087 4.48 6.8087 4.28 6.6187L4.15 6.4787C3.76 6.0887 3.76 5.4587 4.15 5.0687C4.54 4.6787 5.17 4.6787 5.56 5.0687L5.69 5.1987C6.08 5.5887 6.08 6.2187 5.69 6.6087C5.5 6.8087 5.24 6.9087 4.99 6.9087ZM12 3.9587C11.45 3.9587 11 3.5487 11 2.9987V2.9187C11 2.3687 11.45 1.9187 12 1.9187C12.55 1.9187 13 2.3687 13 2.9187C13 3.4687 12.55 3.9587 12 3.9587Z" fill="#7E848E"/>
</g>
</g>
</svg>
